<mxfile host="app.diagrams.net" modified="2021-07-10T00:50:33.377Z" agent="5.0 (X11; CrOS x86_64 13904.66.0) AppleWebKit/537.36 (KHTML, like Gecko) Chrome/91.0.4472.114 Safari/537.36" etag="HDiC6-iUMNlJVMu4OAfa" version="14.8.5" type="github">
  <diagram id="_E9an6pG_lRmp2fQBHkA" name="Page-1">
    <mxGraphModel dx="868" dy="474" grid="1" gridSize="10" guides="1" tooltips="1" connect="1" arrows="1" fold="1" page="1" pageScale="1" pageWidth="1100" pageHeight="850" math="0" shadow="0">
      <root>
        <mxCell id="0" />
        <mxCell id="1" parent="0" />
        <mxCell id="CsZ5wwrfbH6RnP_VInxj-70" value="" style="rounded=0;whiteSpace=wrap;html=1;glass=0;fontColor=#000000;strokeWidth=2;align=left;" vertex="1" parent="1">
          <mxGeometry x="40" y="50" width="310" height="230" as="geometry" />
        </mxCell>
        <mxCell id="CsZ5wwrfbH6RnP_VInxj-20" value="" style="group" vertex="1" connectable="0" parent="1">
          <mxGeometry x="55" y="130" width="120" height="30" as="geometry" />
        </mxCell>
        <mxCell id="CsZ5wwrfbH6RnP_VInxj-18" value="Develop" style="rounded=1;whiteSpace=wrap;html=1;fontColor=#000000;align=left;spacingLeft=5;" vertex="1" parent="CsZ5wwrfbH6RnP_VInxj-20">
          <mxGeometry width="120" height="30" as="geometry" />
        </mxCell>
        <mxCell id="CsZ5wwrfbH6RnP_VInxj-19" value="" style="shape=image;html=1;verticalAlign=top;verticalLabelPosition=bottom;labelBackgroundColor=#ffffff;imageAspect=0;aspect=fixed;image=https://cdn0.iconfinder.com/data/icons/octicons/1024/git-branch-128.png;rounded=0;fontColor=#000000;" vertex="1" parent="CsZ5wwrfbH6RnP_VInxj-20">
          <mxGeometry x="90" width="30" height="30" as="geometry" />
        </mxCell>
        <mxCell id="CsZ5wwrfbH6RnP_VInxj-21" value="" style="group" vertex="1" connectable="0" parent="1">
          <mxGeometry x="55" y="90" width="120" height="30" as="geometry" />
        </mxCell>
        <mxCell id="CsZ5wwrfbH6RnP_VInxj-22" value="Master" style="rounded=1;whiteSpace=wrap;html=1;fontColor=#000000;align=left;spacingLeft=5;" vertex="1" parent="CsZ5wwrfbH6RnP_VInxj-21">
          <mxGeometry width="120" height="30" as="geometry" />
        </mxCell>
        <mxCell id="CsZ5wwrfbH6RnP_VInxj-23" value="" style="shape=image;html=1;verticalAlign=top;verticalLabelPosition=bottom;labelBackgroundColor=#ffffff;imageAspect=0;aspect=fixed;image=https://cdn0.iconfinder.com/data/icons/octicons/1024/git-branch-128.png;rounded=0;fontColor=#000000;" vertex="1" parent="CsZ5wwrfbH6RnP_VInxj-21">
          <mxGeometry x="90" width="30" height="30" as="geometry" />
        </mxCell>
        <mxCell id="CsZ5wwrfbH6RnP_VInxj-24" value="" style="group" vertex="1" connectable="0" parent="1">
          <mxGeometry x="55" y="170" width="120" height="30" as="geometry" />
        </mxCell>
        <mxCell id="CsZ5wwrfbH6RnP_VInxj-25" value="Feature XYZ" style="rounded=1;whiteSpace=wrap;html=1;fontColor=#000000;align=left;spacingLeft=5;" vertex="1" parent="CsZ5wwrfbH6RnP_VInxj-24">
          <mxGeometry width="120" height="30" as="geometry" />
        </mxCell>
        <mxCell id="CsZ5wwrfbH6RnP_VInxj-26" value="" style="shape=image;html=1;verticalAlign=top;verticalLabelPosition=bottom;labelBackgroundColor=#ffffff;imageAspect=0;aspect=fixed;image=https://cdn0.iconfinder.com/data/icons/octicons/1024/git-branch-128.png;rounded=0;fontColor=#000000;" vertex="1" parent="CsZ5wwrfbH6RnP_VInxj-24">
          <mxGeometry x="90" width="30" height="30" as="geometry" />
        </mxCell>
        <mxCell id="CsZ5wwrfbH6RnP_VInxj-39" value="" style="image;image=img/lib/atlassian/Bitbucket_Logo.svg;rounded=1;fontColor=#000000;align=left;" vertex="1" parent="1">
          <mxGeometry x="47" y="55" width="20" height="20" as="geometry" />
        </mxCell>
        <mxCell id="CsZ5wwrfbH6RnP_VInxj-58" value="" style="group" vertex="1" connectable="0" parent="1">
          <mxGeometry x="40" y="310" width="155" height="180" as="geometry" />
        </mxCell>
        <mxCell id="CsZ5wwrfbH6RnP_VInxj-57" value="" style="rounded=0;whiteSpace=wrap;html=1;glass=0;fontColor=#000000;align=left;strokeWidth=2;" vertex="1" parent="CsZ5wwrfbH6RnP_VInxj-58">
          <mxGeometry width="155" height="180" as="geometry" />
        </mxCell>
        <mxCell id="CsZ5wwrfbH6RnP_VInxj-42" value="" style="group" vertex="1" connectable="0" parent="CsZ5wwrfbH6RnP_VInxj-58">
          <mxGeometry x="15" y="20" width="120" height="30" as="geometry" />
        </mxCell>
        <mxCell id="CsZ5wwrfbH6RnP_VInxj-43" value="Feature XYZ" style="rounded=1;whiteSpace=wrap;html=1;fontColor=#000000;align=left;spacingLeft=5;" vertex="1" parent="CsZ5wwrfbH6RnP_VInxj-42">
          <mxGeometry width="120" height="30" as="geometry" />
        </mxCell>
        <mxCell id="CsZ5wwrfbH6RnP_VInxj-44" value="" style="shape=image;html=1;verticalAlign=top;verticalLabelPosition=bottom;labelBackgroundColor=#ffffff;imageAspect=0;aspect=fixed;image=https://cdn0.iconfinder.com/data/icons/octicons/1024/git-branch-128.png;rounded=0;fontColor=#000000;" vertex="1" parent="CsZ5wwrfbH6RnP_VInxj-42">
          <mxGeometry x="90" width="30" height="30" as="geometry" />
        </mxCell>
        <mxCell id="CsZ5wwrfbH6RnP_VInxj-51" value="" style="group" vertex="1" connectable="0" parent="CsZ5wwrfbH6RnP_VInxj-58">
          <mxGeometry x="35" y="60" width="70" height="40" as="geometry" />
        </mxCell>
        <mxCell id="CsZ5wwrfbH6RnP_VInxj-40" value="" style="shape=image;html=1;verticalAlign=top;verticalLabelPosition=bottom;labelBackgroundColor=#ffffff;imageAspect=0;aspect=fixed;image=https://cdn3.iconfinder.com/data/icons/social-media-2169/24/social_media_social_media_logo_git-128.png;rounded=1;fontColor=#000000;container=1;" vertex="1" parent="CsZ5wwrfbH6RnP_VInxj-51">
          <mxGeometry width="40" height="40" as="geometry" />
        </mxCell>
        <mxCell id="CsZ5wwrfbH6RnP_VInxj-45" value="" style="shape=image;html=1;verticalAlign=top;verticalLabelPosition=bottom;labelBackgroundColor=#ffffff;imageAspect=0;aspect=fixed;image=https://cdn4.iconfinder.com/data/icons/logos-and-brands/512/141_Git_logo_logos-128.png;rounded=0;fontColor=#000000;" vertex="1" parent="CsZ5wwrfbH6RnP_VInxj-51">
          <mxGeometry x="40" y="5" width="30" height="30" as="geometry" />
        </mxCell>
        <mxCell id="CsZ5wwrfbH6RnP_VInxj-55" value="" style="group" vertex="1" connectable="0" parent="CsZ5wwrfbH6RnP_VInxj-58">
          <mxGeometry x="15" y="110" width="110" height="55" as="geometry" />
        </mxCell>
        <mxCell id="CsZ5wwrfbH6RnP_VInxj-48" value="" style="shape=mxgraph.cisco.people.androgenous_person;html=1;pointerEvents=1;dashed=0;fillColor=#036897;strokeColor=#ffffff;strokeWidth=2;verticalLabelPosition=bottom;verticalAlign=top;align=center;outlineConnect=0;rounded=0;glass=0;fontColor=#000000;" vertex="1" parent="CsZ5wwrfbH6RnP_VInxj-55">
          <mxGeometry width="50" height="55" as="geometry" />
        </mxCell>
        <mxCell id="CsZ5wwrfbH6RnP_VInxj-53" value="FORMS&lt;br&gt;Developer" style="text;html=1;strokeColor=none;fillColor=none;align=center;verticalAlign=middle;whiteSpace=wrap;rounded=0;glass=0;fontColor=#000000;fontStyle=1" vertex="1" parent="CsZ5wwrfbH6RnP_VInxj-55">
          <mxGeometry x="70" y="17.5" width="40" height="20" as="geometry" />
        </mxCell>
        <mxCell id="CsZ5wwrfbH6RnP_VInxj-72" value="" style="endArrow=none;html=1;fontColor=#000000;" edge="1" parent="1">
          <mxGeometry width="50" height="50" relative="1" as="geometry">
            <mxPoint x="40" y="80" as="sourcePoint" />
            <mxPoint x="350" y="80" as="targetPoint" />
          </mxGeometry>
        </mxCell>
        <mxCell id="CsZ5wwrfbH6RnP_VInxj-73" value="Bitbucket" style="text;html=1;strokeColor=none;fillColor=none;align=center;verticalAlign=middle;whiteSpace=wrap;rounded=0;glass=0;fontColor=#000000;fontStyle=1;fontSize=21;" vertex="1" parent="1">
          <mxGeometry x="102.5" y="55" width="40" height="20" as="geometry" />
        </mxCell>
        <mxCell id="CsZ5wwrfbH6RnP_VInxj-78" style="rounded=0;orthogonalLoop=1;jettySize=auto;html=1;exitX=0.5;exitY=1;exitDx=0;exitDy=0;fontSize=21;fontColor=#000000;dashed=1;endArrow=none;endFill=0;fillColor=#dae8fc;strokeColor=#6c8ebf;entryX=0.5;entryY=0;entryDx=0;entryDy=0;" edge="1" parent="1" source="CsZ5wwrfbH6RnP_VInxj-25" target="CsZ5wwrfbH6RnP_VInxj-43">
          <mxGeometry relative="1" as="geometry">
            <mxPoint x="106" y="330" as="targetPoint" />
          </mxGeometry>
        </mxCell>
      </root>
    </mxGraphModel>
  </diagram>
</mxfile>
